<?xml version="1.0" standalone="no"?>
<!DOCTYPE svg PUBLIC "-//W3C//DTD SVG 20010904//EN"
 "http://www.w3.org/TR/2001/REC-SVG-20010904/DTD/svg10.dtd">
<svg version="1.0" xmlns="http://www.w3.org/2000/svg"
 width="256.000000pt" height="256.000000pt" viewBox="0 0 256.000000 256.000000"
 preserveAspectRatio="xMidYMid meet">
<metadata>
Created by potrace 1.11, written by Peter Selinger 2001-2013
</metadata>
<g transform="translate(0.000000,256.000000) scale(0.100000,-0.100000)"
fill="#000000" stroke="none">
<path d="M1168 2555 c-2 -2 -27 -6 -56 -9 -259 -31 -527 -162 -723 -356 -154
-151 -247 -297 -316 -493 -52 -149 -68 -250 -67 -432 2 -347 138 -662 391
-906 189 -182 433 -304 688 -343 85 -13 319 -14 390 -2 17 3 46 8 65 11 63 11
237 73 312 111 351 177 596 495 680 884 29 133 33 342 8 475 -99 549 -528 967
-1080 1051 -44 6 -286 14 -292 9z"/>
</g>
</svg>
